<svg xmlns="http://www.w3.org/2000/svg" viewBox="0 0 720 380" font-family="-apple-system, BlinkMacSystemFont, 'Segoe UI', Helvetica, Arial, sans-serif" font-size="14">
  <defs>
    <filter id="shadow" x="-4%" y="-4%" width="108%" height="108%">
      <feDropShadow dx="0" dy="2" stdDeviation="3" flood-opacity="0.12"/>
    </filter>
  </defs>

  <!-- Background -->
  <rect width="720" height="380" rx="12" fill="#0d1117"/>

  <!-- Title bar -->
  <rect x="16" y="16" width="688" height="40" rx="8" fill="#161b22"/>
  <text x="32" y="42" fill="#c9d1d9" font-size="15" font-weight="600">Assets</text>
  <rect x="80" y="28" width="24" height="18" rx="9" fill="#30363d"/>
  <text x="92" y="41" fill="#8b949e" font-size="11" text-anchor="middle">5</text>

  <!-- Row 1: Source code (tar.gz) -->
  <rect x="16" y="64" width="688" height="44" rx="0" fill="#0d1117"/>
  <line x1="16" y1="108" x2="704" y2="108" stroke="#21262d" stroke-width="1"/>
  <circle cx="40" cy="86" r="8" fill="none" stroke="#8b949e" stroke-width="1.5"/>
  <text x="56" y="91" fill="#8b949e" font-size="13">📦</text>
  <text x="76" y="91" fill="#58a6ff" font-size="14">Source code (tar.gz)</text>

  <!-- Row 2: Source code (zip) — WRONG -->
  <rect x="16" y="108" width="688" height="44" rx="0" fill="#1c1215"/>
  <line x1="16" y1="152" x2="704" y2="152" stroke="#21262d" stroke-width="1"/>
  <circle cx="40" cy="130" r="8" fill="none" stroke="#8b949e" stroke-width="1.5"/>
  <text x="56" y="135" fill="#8b949e" font-size="13">📦</text>
  <text x="76" y="135" fill="#58a6ff" font-size="14">Source code (zip)</text>
  <!-- X mark -->
  <line x1="580" y1="120" x2="600" y2="140" stroke="#f85149" stroke-width="3" stroke-linecap="round"/>
  <line x1="600" y1="120" x2="580" y2="140" stroke="#f85149" stroke-width="3" stroke-linecap="round"/>
  <text x="612" y="135" fill="#f85149" font-size="12" font-weight="600">NOT this</text>

  <!-- Row 3: manifest.json -->
  <rect x="16" y="152" width="688" height="44" rx="0" fill="#0d1117"/>
  <line x1="16" y1="196" x2="704" y2="196" stroke="#21262d" stroke-width="1"/>
  <circle cx="40" cy="174" r="8" fill="none" stroke="#8b949e" stroke-width="1.5"/>
  <text x="56" y="179" fill="#8b949e" font-size="13">📦</text>
  <text x="76" y="179" fill="#58a6ff" font-size="14">manifest.json</text>

  <!-- Row 4: theme.css -->
  <rect x="16" y="196" width="688" height="44" rx="0" fill="#0d1117"/>
  <line x1="16" y1="240" x2="704" y2="240" stroke="#21262d" stroke-width="1"/>
  <circle cx="40" cy="218" r="8" fill="none" stroke="#8b949e" stroke-width="1.5"/>
  <text x="56" y="223" fill="#8b949e" font-size="13">📦</text>
  <text x="76" y="223" fill="#58a6ff" font-size="14">theme.css</text>

  <!-- Row 5: Owen-Graphite-x.x.x.zip — CORRECT -->
  <rect x="16" y="240" width="688" height="44" rx="0" fill="#122117"/>
  <line x1="16" y1="284" x2="704" y2="284" stroke="#21262d" stroke-width="1"/>
  <circle cx="40" cy="262" r="8" fill="none" stroke="#8b949e" stroke-width="1.5"/>
  <text x="56" y="267" fill="#8b949e" font-size="13">📦</text>
  <text x="76" y="267" fill="#58a6ff" font-size="14" font-weight="600">Owen-Graphite-1.8.62.zip</text>
  <!-- Green border highlight -->
  <rect x="18" y="242" width="684" height="40" rx="4" fill="none" stroke="#3fb950" stroke-width="2.5" stroke-dasharray="none"/>
  <!-- Check mark -->
  <polyline points="580,262 588,270 600,254" fill="none" stroke="#3fb950" stroke-width="3" stroke-linecap="round" stroke-linejoin="round"/>
  <text x="612" y="267" fill="#3fb950" font-size="12" font-weight="600">Download this!</text>

  <!-- Bottom annotation box -->
  <rect x="16" y="300" width="688" height="64" rx="8" fill="#161b22" stroke="#30363d" stroke-width="1"/>
  <text x="36" y="324" fill="#f0883e" font-size="13" font-weight="700">⚠ 주의</text>
  <text x="36" y="348" fill="#c9d1d9" font-size="13">"Source code (zip)"은 빌드 전 소스입니다.</text>
  <text x="368" y="348" fill="#3fb950" font-size="13" font-weight="600">Owen-Graphite-&lt;version&gt;.zip</text>
  <text x="592" y="348" fill="#c9d1d9" font-size="13">을 받으세요.</text>
</svg>